<svg width="162" height="64" viewBox="0 0 162 64" fill="none" xmlns="http://www.w3.org/2000/svg">
<path d="M4.78506 58.3983L4.22717 60.3467L18.8229 60.3346C19.3419 60.3346 19.6014 60.5161 19.6014 60.8791C19.6014 60.9679 19.5841 61.0687 19.5495 61.1817L19.1862 62.3918C19.0305 62.9565 18.6326 63.2389 17.9926 63.2389H3.72119C1.82698 63.2389 0.879883 62.5532 0.879883 61.1817C0.879883 60.8267 0.944753 60.4233 1.07449 59.9715L2.81301 53.9208C3.43576 51.7425 4.94074 50.6534 7.32796 50.6534H21.6253C22.1356 50.6534 22.3908 50.8309 22.3908 51.1859C22.3908 51.2746 22.3735 51.3755 22.3389 51.4884L21.9756 52.7107C21.8113 53.2754 21.4091 53.5578 20.769 53.5578H6.1603L5.60242 55.494H20.2111C20.7301 55.494 20.9896 55.6755 20.9896 56.0385C20.9896 56.1273 20.9723 56.2281 20.9377 56.3411L20.6004 57.5512C20.436 58.116 20.0295 58.3983 19.3808 58.3983H4.78506Z" fill="white"/>
<path d="M25.6602 53.5457L25.0894 55.494H37.4017L37.9725 53.5578L25.6602 53.5457ZM24.272 58.3983L23.7011 60.3346H36.0135L36.5843 58.3983H24.272ZM23.0005 51.5005C23.1562 50.9358 23.5627 50.6534 24.2201 50.6534H38.4785C40.3641 50.6534 41.3069 51.3392 41.3069 52.7107C41.3069 53.0656 41.242 53.469 41.1122 53.9208L40.9436 54.5259C40.563 55.8248 39.9921 56.6315 39.231 56.9462C39.5856 57.1398 39.7629 57.5109 39.7629 58.0595C39.7629 58.4225 39.6894 58.8582 39.5424 59.3664L39.3607 59.9715C38.738 62.1498 37.2373 63.2389 34.8588 63.2389H20.6004C20.0814 63.2308 19.8219 63.0453 19.8219 62.6822C19.8219 62.5935 19.8349 62.4967 19.8608 62.3918L23.0005 51.5005Z" fill="white"/>
<path d="M45.1212 53.5457L44.2001 56.7041H56.5124L57.4335 53.5578L45.1212 53.5457ZM42.4615 51.5005C42.6259 50.9358 43.0281 50.6534 43.6681 50.6534H57.9395C59.8251 50.6534 60.7678 51.3392 60.7678 52.7107C60.7678 53.0656 60.703 53.469 60.5732 53.9208L59.8597 56.3411C59.2369 58.5193 57.7363 59.6085 55.3577 59.6085H43.3697L42.5653 62.3918C42.4096 62.9565 42.0074 63.2389 41.3587 63.2389H40.0613C39.5424 63.2389 39.2829 63.0533 39.2829 62.6822C39.2829 62.6016 39.2959 62.5047 39.3218 62.3918L42.4615 51.5005Z" fill="white"/>
<path d="M64.5822 53.5457L62.6361 60.3346L74.9484 60.3467L76.9075 53.5578L64.5822 53.5457ZM77.4005 50.6534C79.2861 50.6534 80.2288 51.3392 80.2288 52.7107C80.2288 53.0656 80.164 53.469 80.0342 53.9208L78.2957 59.9715C77.673 62.1498 76.1723 63.2389 73.7937 63.2389H62.1171C60.2316 63.2389 59.2888 62.5532 59.2888 61.1817C59.2888 60.8267 59.3537 60.4233 59.4834 59.9715L61.2219 53.9208C61.8447 51.7425 63.3497 50.6534 65.7369 50.6534H77.4005Z" fill="white"/>
<path d="M82.5771 58.604L81.4873 62.3918C81.3316 62.9565 80.9294 63.2389 80.2807 63.2389H78.9833C78.4644 63.2389 78.2049 63.0533 78.2049 62.6822C78.2049 62.6016 78.2179 62.5047 78.2438 62.3918L81.3705 51.5126C81.5435 50.9479 81.9501 50.6655 82.5901 50.6655H83.8875C84.4065 50.6655 84.6659 50.847 84.6659 51.2101C84.6659 51.2988 84.6486 51.3997 84.614 51.5126L83.5372 55.2883C83.4853 55.3286 83.4594 55.3609 83.4594 55.3851V55.3972C83.4594 55.4052 83.4637 55.4093 83.4723 55.4093C83.5502 55.4093 83.7361 55.3488 84.0302 55.2277L94.8246 50.6534H101.182L86.5601 56.9462L97.5751 63.2389H91.2178L83.0442 58.6646C82.8193 58.5435 82.6679 58.483 82.5901 58.483C82.5728 58.483 82.5598 58.4911 82.5512 58.5072C82.5512 58.5314 82.5598 58.5637 82.5771 58.604Z" fill="white"/>
<path d="M103.504 53.5457L102.583 56.7041H114.895L115.817 53.5578L103.504 53.5457ZM100.845 51.5005C101.009 50.9358 101.411 50.6534 102.051 50.6534H116.322C118.208 50.6534 119.151 51.3392 119.151 52.7107C119.151 53.0656 119.086 53.469 118.956 53.9208L118.243 56.3411C117.62 58.5193 116.119 59.6085 113.741 59.6085H101.753L100.948 62.3918C100.793 62.9565 100.39 63.2389 99.7417 63.2389H98.4443C97.9254 63.2389 97.6659 63.0533 97.6659 62.6822C97.6659 62.6016 97.6789 62.5047 97.7048 62.3918L100.845 51.5005Z" fill="white"/>
<path d="M122.809 60.8186L120.37 63.2389H116.712L127.493 52.6017C128.782 51.3029 130.032 50.6534 131.243 50.6534C132.453 50.6534 133.34 51.3029 133.902 52.6017L138.56 63.2389H134.901L133.837 60.8186H122.809ZM132.566 57.9143L130.516 53.2189L125.768 57.9143H132.566Z" fill="white"/>
<path d="M143.633 58.3983L142.478 62.3918C142.322 62.9565 141.92 63.2389 141.271 63.2389H139.974C139.455 63.2389 139.196 63.0533 139.196 62.6822C139.196 62.6016 139.209 62.5047 139.235 62.3918L142.426 51.2585H142.439C142.552 50.8551 142.932 50.6534 143.581 50.6534H144.878C145.397 50.6534 145.657 50.839 145.657 51.2101C145.657 51.2908 145.644 51.3876 145.618 51.5005L144.463 55.494H156.788L158.008 51.2585H158.021C158.133 50.8551 158.514 50.6534 159.163 50.6534H160.46C160.979 50.6534 161.238 50.839 161.238 51.2101C161.238 51.2908 161.225 51.3876 161.2 51.5005L158.06 62.3918C157.904 62.9565 157.502 63.2389 156.853 63.2389H155.556C155.037 63.2389 154.777 63.0533 154.777 62.6822C154.777 62.6016 154.79 62.5047 154.816 62.3918L155.971 58.3983H143.633Z" fill="white"/>
<path fill-rule="evenodd" clip-rule="evenodd" d="M112.348 19.4532C112.348 30.1943 98.4693 38.9016 81.3489 38.9016C64.2285 38.9016 50.3497 30.1943 50.3497 19.4532C50.3497 8.7122 64.2285 0.00488281 81.3489 0.00488281C98.4693 0.00488281 112.348 8.7122 112.348 19.4532ZM99.6822 31.5687H94.3372L81.6227 24.4543C81.2728 24.266 81.0374 24.1719 80.9163 24.1719C80.8894 24.1719 80.8692 24.1845 80.8558 24.2096C80.8558 24.2472 80.8692 24.2974 80.8961 24.3601L79.2008 30.2512C78.9587 31.1296 78.333 31.5687 77.3239 31.5687H75.3058C74.4985 31.5687 74.0949 31.2802 74.0949 30.703C74.0949 30.5775 74.115 30.4269 74.1554 30.2512L75.4989 25.5774H55.8086C57.0768 27.3824 58.919 29.0842 61.3168 30.5885C66.297 33.713 73.3694 35.7478 81.3489 35.7478C88.46 35.7478 94.8506 34.1318 99.6822 31.5687ZM62.2092 7.78258C67.125 4.96301 73.8348 3.15867 81.3489 3.15867C89.3284 3.15867 96.4008 5.19342 101.381 8.31794C103.179 9.44572 104.664 10.6844 105.829 11.9945H99.9477L83.1565 19.109C82.699 19.2972 82.4097 19.3913 82.2887 19.3913C82.2752 19.3913 82.2685 19.385 82.2685 19.3725V19.3536C82.2685 19.316 82.3088 19.2658 82.3896 19.2031L84.0647 13.3308C84.1185 13.1551 84.1454 12.9983 84.1454 12.8603C84.1454 12.2956 83.7417 12.0133 82.9345 12.0133H80.9163C79.9207 12.0133 79.2883 12.4525 79.0192 13.3308L78.6467 14.6267H58.2749L59.0638 11.8891H79.7226C80.6278 11.8891 81.1965 11.4898 81.4289 10.6913L81.9426 8.96319C81.9916 8.8035 82.016 8.66091 82.016 8.53544C82.016 8.03353 81.6552 7.78258 80.9335 7.78258H62.2092ZM106.853 13.2782L87.0919 21.7816L101.911 30.2466C106.565 27.1633 108.966 23.3106 108.966 19.4532C108.966 17.3523 108.254 15.2528 106.853 13.2782ZM57.1191 18.7332L56.3301 21.488L76.6793 21.4711L77.4663 18.7332H57.1191Z" fill="white"/>
</svg>
